<?xml version="1.0" encoding="UTF-8" standalone="no"?>
<svg
   height="24px"
   viewBox="0 -960 960 960"
   width="24px"
   fill="#e8eaed"
   version="1.1"
   id="svg1"
   sodipodi:docname="hub_24dp_E8EAED_FILL1_wght400_GRAD0_opsz24.svg"
   inkscape:version="1.3.2 (091e20ef0f, 2023-11-25, custom)"
   xmlns:inkscape="http://www.inkscape.org/namespaces/inkscape"
   xmlns:sodipodi="http://sodipodi.sourceforge.net/DTD/sodipodi-0.dtd"
   xmlns="http://www.w3.org/2000/svg"
   xmlns:svg="http://www.w3.org/2000/svg">
  <defs
     id="defs1" />
  <sodipodi:namedview
     id="namedview1"
     pagecolor="#ffffff"
     bordercolor="#000000"
     borderopacity="0.25"
     inkscape:showpageshadow="2"
     inkscape:pageopacity="0.0"
     inkscape:pagecheckerboard="0"
     inkscape:deskcolor="#d1d1d1"
     inkscape:zoom="27.375"
     inkscape:cx="12"
     inkscape:cy="12"
     inkscape:window-width="1920"
     inkscape:window-height="1011"
     inkscape:window-x="0"
     inkscape:window-y="0"
     inkscape:window-maximized="1"
     inkscape:current-layer="svg1" />
  <path
     d="m 240,-20 q -50,0 -85,-35 -35,-35 -35,-85 0,-50 35,-85 35,-35 85,-35 14,0 26,3 12,3 23,8 l 57,-71 q -28,-31 -39,-70 -11,-39 -5,-78 l -81,-27 q -17,25 -43,40 -26,15 -58,15 -50,0 -85,-35 -35,-35 -35,-85 0,-50 35,-85 35,-35 85,-35 50,0 85,35 35,35 35,85 v 8 l 81,28 q 20,-36 53.5,-61 33.5,-25 75.5,-32 v -87 Q 411,-715 385.5,-746.5 360,-778 360,-820 q 0,-50 35,-85 35,-35 85,-35 50,0 85,35 35,35 35,85 0,42 -26,73.5 -26,31.5 -64,42.5 v 87 q 42,7 75.5,32 33.5,25 53.5,61 l 81,-28 v -8 q 0,-50 35,-85 35,-35 85,-35 50,0 85,35 35,35 35,85 0,50 -35,85 -35,35 -85,35 -32,0 -58.5,-15 -26.5,-15 -42.5,-40 l -81,27 q 6,39 -5,77.5 -11,38.5 -39,70.5 l 57,70 q 11,-5 23,-7.5 12,-2.5 26,-2.5 50,0 85,35 35,35 35,85 0,50 -35,85 -35,35 -85,35 -50,0 -85,-35 -35,-35 -35,-85 0,-20 6.5,-38.5 Q 613,-197 624,-212 l -57,-71 q -41,23 -87.5,23 -46.5,0 -87.5,-23 l -56,71 q 11,15 17.5,33.5 6.5,18.5 6.5,38.5 0,50 -35,85 -35,35 -85,35 z"
     id="path1"
     style="fill:#eec98c;fill-opacity:1;stroke:none" />
</svg>
